<?xml version="1.0" encoding="UTF-8" standalone="yes"?>
<svg version="1.1" xmlns:x="&amp;ns_extend;" xmlns:i="&amp;ns_ai;" xmlns:graph="&amp;ns_graphs;" xmlns="http://www.w3.org/2000/svg" xmlns:xlink="http://www.w3.org/1999/xlink" x="0px" y="0px" viewBox="0 0 203.43 315" style="enable-background:new 0 0 203.43 315;" xml:space="preserve">
      <style type="text/css">.st0{fill:#FF4E00;}	.st1{fill:#FF8500;}	.st2{fill:#FFCE00;}	.st3{fill:url(#SVGID_1_);}	.st4{fill:url(#SVGID_2_);}	.st5{fill:url(#SVGID_3_);}	.st6{fill:url(#SVGID_4_);}	.st7{fill:url(#SVGID_5_);}	.st8{fill:url(#SVGID_6_);}	.st9{fill:url(#SVGID_7_);}	.st10{fill:url(#SVGID_8_);}	.st11{fill:url(#SVGID_9_);}	.st12{fill:url(#SVGID_10_);}	.st13{fill:url(#SVGID_11_);}	.st14{fill:#EA8B0E;}	.st15{fill:url(#SVGID_12_);}	.st16{fill:url(#SVGID_13_);}	.st17{fill:url(#SVGID_14_);}	.st18{opacity:0.5;fill:#231F20;}	.st19{fill:url(#SVGID_15_);}	.st20{fill:url(#SVGID_16_);}	.st21{fill:url(#SVGID_17_);}	.st22{fill:url(#SVGID_18_);}	.st23{fill:url(#SVGID_19_);}	.st24{fill:url(#SVGID_20_);}	.st25{fill:url(#SVGID_21_);}	.st26{fill:url(#SVGID_22_);}</style>
    <metadata>
              <sfw>
                      <slices/>
            <sliceSourceBounds bottomLeftOrigin="true" height="315" width="203.43" x="-115.65" y="86.09"/>
                  </sfw>
          </metadata>
    <g id="color_index_0" fill="rgba(255, 78, 0, 1)">
              <path d="M152.12,209.74c0.49,15.32-8.97,41.63-34.18,42.46c-23.84-1.88-28.23-13.35-28.23-13.35&#x9;&#x9;S126.65,255.15,152.12,209.74z"/>
        <path d="M169.97,193.92c5.9,16.67,3.72,49.72-23.71,59.45c-26.87,6.27-34.73-5.61-34.73-5.61&#x9;&#x9;S157.85,252.77,169.97,193.92z"/>
        <path d="M185.21,181c10.52,17.32,16.72,53.76-11.77,71.08c-28.67,13.31-41.17,2.97-41.17,2.97&#x9;&#x9;S185.38,249.83,185.21,181z"/>
        <path d="M203.43,213.28c0,56.17-45.53,101.72-101.71,101.72c-4.65,0-9.23-0.31-13.71-0.93&#x9;&#x9;c-20.26-2.71-38.62-11.42-53.27-24.24c-16.58-14.51-28.4-34.33-32.83-56.8C0.66,226.64,0,220.04,0,213.28&#x9;&#x9;c0-56.17,45.53-101.72,101.72-101.72c12.51,0,24.6,0.39,35.15,5.73c24.82,12.61,42.02,33.23,33.23,65.33&#x9;&#x9;c0.03-0.61,0.06-1.21,0.07-1.81c0.7-24.73-15.02-28.6-25.11-29.7c-7.84-0.87-15.11-0.18-21.62,1.83&#x9;&#x9;c-20.04,6.16-32.9,24.67-32.9,47.73c0,30.57,24.78,55.35,55.35,55.35s52.19-24.36,52.19-54.92c0-7.71-3.01-27.62-3.28-28.85&#x9;&#x9;C200.36,184.8,203.43,198.69,203.43,213.28z"/>
          </g>
    <g id="color_index_1" fill="rgba(255, 133, 0, 1)">
              <path d="M126.62,108.35c-3.67-1.69-39.89-17.1-86.58,10.88c-2.33,1.41-4.7,2.92-7.09,4.55&#x9;&#x9;C8.5,123.02,3.91,104.69,3.91,104.69s19.11,7.63,33.62,4.58C22.79,98.55,23.91,77.84,24.41,72.91l0.01-0.1&#x9;&#x9;c0.06-0.63,0.12-0.97,0.12-0.97l0.01,0.01c0.42,0.72,14.04,23.7,33.58,27.47c0-0.01-0.01-0.01-0.03-0.03&#x9;&#x9;C43.63,87,39.07,51.16,45.94,30.56c7.65,33.62,25.98,52.73,32.86,58.07c0,0-0.01-0.01-0.03-0.06C65.06,61.85,71.17,27.49,87.96,0&#x9;&#x9;c-11.46,31.32,0.76,68.77,10.7,84.05C107.83,98.15,124.17,107.05,126.62,108.35z"/>
          </g>
    <g id="color_index_2" fill="rgba(255, 206, 0, 1)">
              <path d="M176.85,122.36c0.22,1.36,0.52,2.72,0.88,4.1c2.18,4.73,4.03,13.44,3.7,23.28&#x9;&#x9;c-0.34,10.85-3.32,23.07-11.33,32.87c0,0,4.2-9.94-0.76-31.33c-0.39-1.65-0.9-3.23-1.53-4.77c-0.01-0.06-0.04-0.1-0.07-0.16&#x9;&#x9;c-7.57-18.38-30.87-29.06-30.87-29.06c-8.41-20.63-1.15-38.19,13.74-47.36c-6.48,6.14-6.87,23.69,0.78,35.9&#x9;&#x9;c0-7.26-1.15-19.48,17.57-30.56c-0.24,0.22-0.48,0.46-0.69,0.7c-5.85,6.51-6.4,21.25-1.99,36.35c0-6.11,2.68-15.67,17.19-21.77&#x9;&#x9;C178.23,94.39,174.28,107.83,176.85,122.36z"/>
          </g>
    <g>
              <linearGradient id="SVGID_1_" gradientUnits="userSpaceOnUse" x1="114.6461" y1="270.3516" x2="138.5197" y2="210.0992">
                      <stop offset="0" style="stop-color:#000000;stop-opacity:0.5"/>
            <stop offset="1" style="stop-color:#231F20;stop-opacity:0"/>
                  </linearGradient>
        <linearGradient id="SVGID_2_" gradientUnits="userSpaceOnUse" x1="124.5216" y1="285.9052" x2="159.3196" y2="198.0818">
                      <stop offset="0" style="stop-color:#000000;stop-opacity:0.5"/>
            <stop offset="1" style="stop-color:#231F20;stop-opacity:0"/>
                  </linearGradient>
        <linearGradient id="SVGID_3_" gradientUnits="userSpaceOnUse" x1="176.6112" y1="278.3673" x2="161.7763" y2="221.2256">
                      <stop offset="0" style="stop-color:#000000;stop-opacity:0.5"/>
            <stop offset="1" style="stop-color:#231F20;stop-opacity:0"/>
                  </linearGradient>
        <linearGradient id="SVGID_4_" gradientUnits="userSpaceOnUse" x1="159.5976" y1="131.8378" x2="66.187" y2="65.9346">
                      <stop offset="3.412969e-03" style="stop-color:#FFFFFF;stop-opacity:0.5"/>
            <stop offset="1" style="stop-color:#FFFFFF;stop-opacity:0"/>
                  </linearGradient>
        <linearGradient id="SVGID_5_" gradientUnits="userSpaceOnUse" x1="103.5115" y1="42.0683" x2="41.6198" y2="68.4295">
                      <stop offset="3.412969e-03" style="stop-color:#FFFFFF;stop-opacity:0.5"/>
            <stop offset="1" style="stop-color:#FFFFFF;stop-opacity:0"/>
                  </linearGradient>
        <linearGradient id="SVGID_6_" gradientUnits="userSpaceOnUse" x1="25.5644" y1="21.203" x2="119.5481" y2="244.3188">
                      <stop offset="0" style="stop-color:#000000;stop-opacity:0.5"/>
            <stop offset="1" style="stop-color:#231F20;stop-opacity:0"/>
                  </linearGradient>
        <linearGradient id="SVGID_7_" gradientUnits="userSpaceOnUse" x1="57.4848" y1="62.5635" x2="31.5056" y2="99.6221">
                      <stop offset="3.412969e-03" style="stop-color:#FFFFFF;stop-opacity:0.5"/>
            <stop offset="1" style="stop-color:#FFFFFF;stop-opacity:0"/>
                  </linearGradient>
        <linearGradient id="SVGID_8_" gradientUnits="userSpaceOnUse" x1="20.5175" y1="86.5944" x2="20.8041" y2="115.821">
                      <stop offset="3.412969e-03" style="stop-color:#FFFFFF;stop-opacity:0.5"/>
            <stop offset="1" style="stop-color:#FFFFFF;stop-opacity:0"/>
                  </linearGradient>
        <linearGradient id="SVGID_9_" gradientUnits="userSpaceOnUse" x1="161.2152" y1="336.1487" x2="55.006" y2="139.0122">
                      <stop offset="0" style="stop-color:#FFFFFF;stop-opacity:0.5"/>
            <stop offset="0.9932" style="stop-color:#FFFFFF;stop-opacity:0"/>
                  </linearGradient>
        <linearGradient id="SVGID_10_" gradientUnits="userSpaceOnUse" x1="38.1137" y1="15.0748" x2="155.0202" y2="284.8003">
                      <stop offset="0" style="stop-color:#000000;stop-opacity:0.5"/>
            <stop offset="1" style="stop-color:#231F20;stop-opacity:0"/>
                  </linearGradient>
        <linearGradient id="SVGID_11_" gradientUnits="userSpaceOnUse" x1="46.2286" y1="-23.5746" x2="93.2205" y2="233.1613">
                      <stop offset="0" style="stop-color:#000000;stop-opacity:0.5"/>
            <stop offset="1" style="stop-color:#231F20;stop-opacity:0"/>
                  </linearGradient>
        <linearGradient id="SVGID_12_" gradientUnits="userSpaceOnUse" x1="127.3294" y1="105.3464" x2="144.235" y2="101.6214">
                      <stop offset="0" style="stop-color:#000000;stop-opacity:0.5"/>
            <stop offset="1" style="stop-color:#231F20;stop-opacity:0"/>
                  </linearGradient>
        <linearGradient id="SVGID_13_" gradientUnits="userSpaceOnUse" x1="142.9674" y1="110.9844" x2="160.5485" y2="110.9844">
                      <stop offset="0" style="stop-color:#000000;stop-opacity:0.5"/>
            <stop offset="1" style="stop-color:#231F20;stop-opacity:0"/>
                  </linearGradient>
        <linearGradient id="SVGID_14_" gradientUnits="userSpaceOnUse" x1="159.4354" y1="128.3856" x2="172.3295" y2="128.099">
                      <stop offset="0" style="stop-color:#FFFFFF;stop-opacity:0.5"/>
            <stop offset="1" style="stop-color:#231F20;stop-opacity:0"/>
                  </linearGradient>
        <linearGradient id="SVGID_16_" gradientUnits="userSpaceOnUse" x1="139.5143" y1="146.0626" x2="155.8468" y2="90.1881">
                      <stop offset="3.412969e-03" style="stop-color:#FFFFFF;stop-opacity:0.5"/>
            <stop offset="1" style="stop-color:#FFFFFF;stop-opacity:0"/>
                  </linearGradient>
        <linearGradient id="SVGID_17_" gradientUnits="userSpaceOnUse" x1="153.9993" y1="145.5813" x2="169.1797" y2="93.6483">
                      <stop offset="3.412969e-03" style="stop-color:#FFFFFF;stop-opacity:0.5"/>
            <stop offset="1" style="stop-color:#FFFFFF;stop-opacity:0"/>
                  </linearGradient>
        <linearGradient id="SVGID_18_" gradientUnits="userSpaceOnUse" x1="169.1925" y1="135.7257" x2="179.3468" y2="100.9871">
                      <stop offset="3.412969e-03" style="stop-color:#FFFFFF;stop-opacity:0.5"/>
            <stop offset="1" style="stop-color:#FFFFFF;stop-opacity:0"/>
                  </linearGradient>
        <linearGradient id="SVGID_19_" gradientUnits="userSpaceOnUse" x1="39.7523" y1="88.0079" x2="16.4475" y2="120.2909">
                      <stop offset="0" style="stop-color:#000000;stop-opacity:0.5"/>
            <stop offset="1" style="stop-color:#231F20;stop-opacity:0"/>
                  </linearGradient>
        <linearGradient id="SVGID_20_" gradientUnits="userSpaceOnUse" x1="59.4502" y1="61.2952" x2="28.7773" y2="103.7846">
                      <stop offset="0" style="stop-color:#000000;stop-opacity:0.5"/>
            <stop offset="1" style="stop-color:#231F20;stop-opacity:0"/>
                  </linearGradient>
        <linearGradient id="SVGID_21_" gradientUnits="userSpaceOnUse" x1="113.2869" y1="35.0657" x2="34.4897" y2="78.3325">
                      <stop offset="0" style="stop-color:#000000;stop-opacity:0.5"/>
            <stop offset="1" style="stop-color:#231F20;stop-opacity:0"/>
                  </linearGradient>
        <linearGradient id="SVGID_22_" gradientUnits="userSpaceOnUse" x1="212.3971" y1="-20.5462" x2="47.5431" y2="69.9736">
                      <stop offset="0" style="stop-color:#000000;stop-opacity:0.5"/>
            <stop offset="1" style="stop-color:#231F20;stop-opacity:0"/>
                  </linearGradient>
        <path class="st3" d="M142.64,239.31l-0.01,0.01c-9.92,6.49-19.9,8.13-25.79,8.46c-2.93-1.81-5.68-3.89-8.22-6.2&#x9;&#x9;c12.8-0.85,29.81-7.43,43.5-31.85C152.39,218.28,149.57,230.25,142.64,239.31z"/>
        <path class="st4" d="M165.59,237.93c-10.93,11.65-25.4,15.67-31.42,16.83c-3.34-0.68-7.38-2.04-10.25-3.29&#x9;&#x9;c-2.46-1.06-4.82-2.3-7.07-3.69c5.89-0.33,15.87-1.97,25.79-8.46l0.01-0.01c11.17-7.29,22.25-20.74,27.33-45.4&#x9;&#x9;C173.92,205.08,174.27,224.08,165.59,237.93z"/>
        <path class="st5" d="M192.4,226.69c-8.29,17.51-25.2,29.32-46.51,29.32c-4.03,0-7.96-0.43-11.74-1.26c0.6-0.1,1.33-0.25,2.17-0.45&#x9;&#x9;c6.41-1.47,19.28-5.73,30.21-17.38c10.23-10.9,18.75-28.28,18.68-55.92C191.8,191.86,196.69,210.23,192.4,226.69z"/>
        <path class="st6" d="M126.62,108.35c-3.85-1.78-43.6-18.69-93.67,15.43c15.28-17.57,45.84-28.27,62.65-29.8&#x9;&#x9;C74.97,62.66,76.49,19.09,87.96,0c-11.46,31.32,0.76,68.77,10.7,84.05C107.83,98.15,124.17,107.05,126.62,108.35z"/>
        <path class="st7" d="M78.8,88.63c-24.46-3.05-33.62-38.96-32.86-58.07C53.58,64.18,71.92,83.29,78.8,88.63z"/>
        <path class="st8" d="M203.43,213.28c0,56.17-45.53,101.72-101.71,101.72c-4.65,0-9.23-0.31-13.71-0.93&#x9;&#x9;c-16.09-2.15-30.97-8.08-43.77-16.88c-3.32-2.26-6.49-4.73-9.5-7.36c0.3,0.18,0.58,0.36,0.88,0.52c-34.39-51-9.17-98-9.17-98&#x9;&#x9;s-4.01,25.8,13.75,48.14c-12.61-67.62,42.41-89.98,42.41-89.98s-16.04,13.77-17.19,32.67c7.45-10.16,19.72-18.33,32.64-23.64&#x9;&#x9;c8.57-3.55,17.45-5.82,25.39-6.61c-4.17,1.29-8.05,3.11-11.55,5.4c-13.3,8.69-21.35,24.09-21.35,42.33&#x9;&#x9;c0,30.57,24.78,55.35,55.35,55.35s52.1-23.93,52.1-54.48c0-7.71-2.92-28.06-3.19-29.28C200.36,184.8,203.43,198.69,203.43,213.28z"/>
        <path class="st9" d="M58.16,99.33c-10.7,3.82-29.81-5.34-33.62-27.5l0.01,0.01C24.97,72.56,38.61,95.57,58.16,99.33z"/>
        <path class="st10" d="M37.53,109.26c-6.88,6.88-24.45,8.41-33.62-4.58C3.91,104.68,23.01,112.32,37.53,109.26z"/>
        <path class="st11" d="M170.11,182.62c1.53-26.37-14.71-30.38-25.03-31.51c-7.84-0.87-15.11-0.18-21.62,1.83&#x9;&#x9;c-7.95,0.79-16.82,3.07-25.39,6.61c-12.91,5.31-25.18,13.48-32.64,23.64c1.15-18.9,17.19-32.67,17.19-32.67&#x9;&#x9;s-55.02,22.36-42.41,89.98c-17.76-22.34-13.75-48.14-13.75-48.14s-25.21,47,9.17,98c-0.3-0.16-0.58-0.34-0.88-0.52&#x9;&#x9;C13.45,271.19,0,243.8,0,213.28c0-56.17,45.53-101.72,101.72-101.72c12.51,0,24.6,0.39,35.15,5.73&#x9;&#x9;C161.7,129.9,175.64,145.94,170.11,182.62z"/>
        <path class="st12" d="M203.43,213.28c0,56.17-45.53,101.72-101.71,101.72c-4.65,0-9.23-0.31-13.71-0.93&#x9;&#x9;c-0.28-0.25-0.55-0.51-0.82-0.79C56.25,291.5,67.14,255.4,67.14,255.4s10.89,25.21,27.5,32.1c-20.62-28.66-13.75-64.76-4.1-86.83&#x9;&#x9;c0,30.57,24.78,55.35,55.35,55.35s52.1-24.31,52.1-54.87c0-7.71-2.91-27.67-3.18-28.9C200.36,184.8,203.43,198.69,203.43,213.28z"/>
        <path class="st13" d="M171.37,177.89c-0.31,1.65-0.78,2.96-1.25,4.69c-0.01,0.03-0.01,0.04-0.01,0.04c0.03-0.61,0-1.21,0.07-1.81&#x9;&#x9;c6.42-46.9-35.76-70.69-84.51-60.27C-8.32,140.6,2.38,233.61,2.38,233.61s-0.16-0.19-0.46-0.58C0.66,226.64,0,220.04,0,213.28&#x9;&#x9;c0-56.17,45.53-101.72,101.72-101.72c12.51,0,24.6,0.39,35.15,5.73c0,0,0.04,0.03,0.15,0.07c9.49,4.84,18.32,11.18,25.06,19.48&#x9;&#x9;c5.29,6.52,7.64,13.49,8.77,22.3C171.62,165.05,172.5,171.97,171.37,177.89z"/>
        <path class="st14" d="M160.92,135.42c-1.57-1.86-3.25-3.58-4.97-5.18C157.73,131.89,159.39,133.61,160.92,135.42z"/>
        <path class="st15" d="M155.2,129.51c-0.1-0.07-0.22-0.16-0.33-0.22c-8.74-7.75-18-12-18-12c-8.41-20.63-1.15-38.2,13.75-47.37&#x9;&#x9;c-0.79,0.94-1.54,1.93-2.23,2.95C138.85,86.94,139.88,107.06,155.2,129.51z"/>
        <path class="st16" d="M167.82,146.51v0.19c-0.01-0.12-0.04-0.24-0.07-0.36c-2.22-12.25-13.32-24.2-16.36-40.52&#x9;&#x9;c0-7.26-1.15-19.48,17.57-30.56C145.75,93.15,168.01,130.36,167.82,146.51z"/>
        <path class="st17" d="M172.78,125.69c2.66,17.19,3.43,30.18-1.15,39.73c2.68-21.77-3.82-36.68-5.36-53.11&#x9;&#x9;c0-6.11,2.68-15.67,17.19-21.77C172.38,96.28,170.11,108.5,172.78,125.69z"/>
        <path class="st18" d="M161.51,142.79c-1.43,3.72,1.77,6.54,4.92,7.12C163.18,142.02,161.51,142.79,161.51,142.79z"/>
        <path class="st19" d="M154.82,262.65c-46.42,5.73-72.22-22.54-75.65-53.49c-1.99-17.87,5.42-39.77,17.19-50.05&#x9;&#x9;c8.63-7.57,19.65-13.02,33.24-13.75c32.08-1.72,42.98,20.06,40.5,37.25c1.53-26.37-14.71-30.38-25.03-31.51&#x9;&#x9;c-7.84-0.87-15.11-0.18-21.62,1.83c-20.04,6.16-32.9,24.67-32.9,47.73c0,30.57,24.78,55.35,55.35,55.35s52.1-23.55,52.1-54.1&#x9;&#x9;c0-7.71-2.91-28.43-3.18-29.66C213.59,223.2,184.63,258.08,154.82,262.65z"/>
        <path class="st20" d="M159.6,126.83c-30.94-36.94-9.79-56.2-8.99-56.91c-6.48,6.14-6.87,23.69,0.78,35.9&#x9;&#x9;C152.54,110.4,154.05,117.48,159.6,126.83z"/>
        <path class="st21" d="M168.55,126.5c-12.42-25.05-8.08-42.39-0.28-50.53c-5.85,6.51-6.4,21.25-1.99,36.35&#x9;&#x9;C167.05,120.29,168.55,126.5,168.55,126.5z"/>
        <path class="st22" d="M176.85,122.36c-6.96-16.86,1.05-28.15,6.61-31.81C178.23,94.39,174.28,107.83,176.85,122.36z"/>
        <path class="st23" d="M40.04,119.05c-2.33,1.46-4.7,3.04-7.09,4.73C8.5,122.99,3.91,103.91,3.91,103.91&#x9;&#x9;c7.65,10.12,20.06,16.78,38.98,13.51C42.93,117.5,40.01,118.97,40.04,119.05z"/>
        <path class="st24" d="M52.52,108.68c-11.46,3.16-14.99,0.58-14.99,0.58C22.79,98.55,23.91,77.84,24.41,72.91l0.01-0.1l0.13-0.96&#x9;&#x9;C24.17,82.33,31.32,106.68,52.52,108.68z"/>
        <path class="st25" d="M68.86,100.95c-7.45-0.57-10.7-1.62-10.7-1.62s-0.01,0-0.03-0.01c0-0.01-0.01-0.01-0.03-0.03&#x9;&#x9;C43.63,87,39.07,51.16,45.94,30.56C42.78,49.95,49.1,88.63,68.86,100.95z"/>
        <path class="st26" d="M89.11,94.93c-8.41-3.82-10.31-6.3-10.31-6.3s-0.01-0.01-0.03-0.06C65.06,61.85,71.17,27.49,87.96,0&#x9;&#x9;C73.07,24.63,72.68,70.11,89.11,94.93z"/>
        <radialGradient id="SVGID_15_" cx="139.8124" cy="204.3344" r="60.0195" gradientUnits="userSpaceOnUse">
                      <stop offset="0" style="stop-color:#000000;stop-opacity:0.5"/>
            <stop offset="0.386" style="stop-color:#030303;stop-opacity:0.307"/>
            <stop offset="0.6704" style="stop-color:#0C0B0B;stop-opacity:0.1648"/>
            <stop offset="0.9215" style="stop-color:#1C191A;stop-opacity:0.0393"/>
            <stop offset="1" style="stop-color:#231F20;stop-opacity:0"/>
                  </radialGradient>
          </g>
  </svg>